<?xml version="1.0" encoding="UTF-8"?>
<svg id="_レイヤー_2" data-name="レイヤー 2" xmlns="http://www.w3.org/2000/svg" viewBox="0 0 423.29 255.25">
  <defs>
    <style>
      .cls-1 {
        fill: #839469;
      }

      .cls-2 {
        fill: #c7c7c6;
      }

      .cls-3 {
        fill: #4a4a4a;
      }

      .cls-4 {
        fill: #b1b1b0;
      }

      .cls-5 {
        fill: #4e4e4e;
      }

      .cls-6 {
        fill: #4a4b4a;
      }

      .cls-7 {
        fill: #323230;
      }

      .cls-8 {
        fill: #414141;
      }

      .cls-9 {
        fill: #839368;
      }

      .cls-10 {
        fill: #a3a3a3;
      }

      .cls-11 {
        fill: #849569;
      }

      .cls-12 {
        fill: #878787;
      }

      .cls-13 {
        fill: #494949;
      }

      .cls-14 {
        fill: #50504f;
      }

      .cls-15 {
        fill: #4f4f4f;
      }

      .cls-16 {
        fill: #676667;
      }

      .cls-17 {
        fill: #1b1d1c;
      }

      .cls-18 {
        fill: #4d768c;
      }

      .cls-19 {
        fill: #d0874b;
      }

      .cls-20 {
        fill: #494a49;
      }

      .cls-21 {
        fill: #484948;
      }

      .cls-22 {
        fill: #999998;
      }
    </style>
  </defs>
  <g id="_レイヤー_1-2" data-name="レイヤー 1">
    <g>
      <path class="cls-15" d="m147.94,240.46c-2.33,4.02-4.57,8.11-7.07,12.03-.59.92-2.46,2.06-3.01,1.76-1.43-.77-3.64-2.59-3.42-3.46,1.04-4.2,2.55-8.34,4.36-12.29,1.68-3.67,3.94-7.06,6.37-11.34-4.57,1.37-8.63,2.51-11.84-2.75,1.62-1.3,3.37-3.36,5.61-4.35,4.78-2.14,9.81-3.73,14.73-5.54.76.32,1.59,1.02,2.26.89,4.56-.87,9.08-1.91,13.61-2.9.06-.19.08-.38.07-.57,3.22-.08,6.44-.15,9.65-.23,1-.19,2.01-.38,3.01-.57.95-1.56,1.9-3.12,2.86-4.68.86.3,1.72.59,2.58.89l-.63,3.13c.27.06.54.11.8.17,1.97-5.58,3.93-11.15,5.9-16.73-.23-.09-.47-.18-.7-.27-.5,1.06-.99,2.12-1.49,3.18-.9-.78-1.79-1.56-2.69-2.35l2.25-8.81c.05-.54.1-1.09.15-1.63l-.04.05c.26-.52.51-1.03.77-1.55-3.27-1.78-1-4.35-.76-6.55-1.18-.37-2.18-.69-3.19-1.01,1.95-1.66,3.69-3.72,5.91-4.84,1.52-.77,3.75-.53,5.58-.22,3.57.59,7.15,4.71,6.6,8.2-1.19,7.52-2.91,14.95-4.41,22.42-.08.08-.22.17-.22.25,0,.2.08.4.13.61.02.26-.09.43-.33.51-4.14-.52-4.24,3.18-5.32,5.48-.93,1.98-.37,4.14,2.15,5.06,1.86,1.36,4.48,2.09,4.46,4.61-2.56.81-4.73,1.49-6.89,2.17-1.59-1.83-2.72-.77-3.51.72-.92,1.71-1.59,3.56-2.37,5.34.22.28.44.56.66.84-.01.22.02.43.1.63-1.54,5.6-3.14,11.18-4.56,16.81-.19.76.52,1.75.82,2.64-.24,1.35-.75,2.72-.68,4.05.19,3.77-2.03,5.1-5.19,5-3.44-.11-4.03-3.55-4.2-5.68-.42-5.3.05-10.67.28-16.01.05-1.05.61-2.08.94-3.12.89.25,1.79.5,2.68.75-.3,2.13-.6,4.26-.9,6.39.19.04.39.08.58.12,1.61-6.23,3.22-12.46,4.83-18.69l-.51-.23c-.48.91-.95,1.81-1.43,2.72-.87-.53-1.75-1.06-2.62-1.59-2.9.13-5.83.05-8.7.43-2.88.38-5.68,1.58-8.56,1.76-3.45.22-5.35,1.89-6.46,4.9-.74.07-1.86-.14-2.16.26-1.58,2.07-3.14,4.19-4.33,6.49-1.08,2.1-1.67,4.46-2.48,6.7Z"/>
      <path class="cls-21" d="m99.06,109.5c.53-.16.76-.28,1-.29,8.47-.41,8.44-.4,11.08,7.47,3.08,9.19,6.23,18.36,9.57,28.21.85-.93,1.77-1.51,2.03-2.29,3.19-9.72,6.31-19.46,9.38-29.22.47-1.5.66-3.1.98-4.65,2.23.2,4.5.41,7.15.65,1.99,5.87,4.01,11.97,6.14,18.03,2.08,5.93,4.28,11.82,6.8,18.76,1.95-5.43,3.65-9.9,5.15-14.44,2.31-6.99,4.49-14.03,6.72-21.04.66-2.06,3.85-3.22,6.21-2.14,2.39,1.09.86,2.71.35,4.06-4.45,11.89-8.96,23.76-13.44,35.64-.86,2.28-1.73,4.56-2.52,6.86-.91,2.67-2.51,3.94-5.52,3.56-2.71-.35-2.53-2.34-3.16-4.16-3.5-10.09-7.15-20.13-10.75-30.18-.28-.77-.55-1.55-1.08-3.07-2.39,7.13-4.59,13.59-6.74,20.07-1.69,5.09-3.35,10.2-5,15.31-.8,2.49-2.89,2.18-4.62,1.86-1.15-.22-2.72-1.14-3.09-2.13-5.5-14.68-10.84-29.42-16.18-44.16-.31-.86-.33-1.84-.47-2.7Z"/>
      <path class="cls-3" d="m357.44,89.66c-.07-.42-.13-.85-.2-1.27-.1-.55-.19-1.11-.29-1.66v-4.29h9.01c0,3.46,0,6.83,0,10.21-.28,1.15-.81,2.3-.82,3.46-.06,17.19-.06,34.37,0,51.56,0,1.14.56,2.28.86,3.41v6.53h-9.16v-5.82c-2.09,1.81-3.61,3.77-5.61,4.73-9.49,4.57-22.71,2.87-28.66-8.44-5.49-10.45-4.21-29.57,6.27-36.59,1.29-.86,2.65-1.63,3.98-2.43,1.1.3,2.35.36,3.26.95,1.09.71,1.88,1.86,2.8,2.82-.33.06-.66.12-.98.18-.49.32-.97.63-1.46.95-1.08,1.14-2.39,2.13-3.19,3.43-6.33,10.41-5.4,21.06-.22,31.44,1.99,3.98,6.17,6.18,10.76,5.9,5.47-.33,10.65-4.61,11.46-9.53.91-5.52,1.78-11.18,1.48-16.72-.34-6.37-2.25-12.52-8.87-15.66.93-1.04,1.86-2.07,2.8-3.11,2.13,1.56,4.26,3.12,6.55,4.81.11-1.58.23-3.45.36-5.32,0-.51,0-1.01,0-1.52-.02-4.98-.04-9.95-.07-14.93-.02-1.03-.04-2.06-.05-3.08Z"/>
      <path class="cls-20" d="m.74,146.49c.08-.71.15-1.42.23-2.14,0-3.99.01-7.97.02-11.96-.01-11.73-.02-23.47-.03-35.2.25-1.51.57-3.01.74-4.53.29-2.73.49-5.48.73-8.22,2.47,0,4.93,0,7.4.01.01,2.75.02,5.5.03,8.25-.47.62-1.33,1.23-1.34,1.86-.09,10.97-.09,21.94-.01,32.9,0,.39.94.78,1.44,1.17,1.87-1.02,4.03-1.72,5.54-3.12,4.47-4.13,9.08-8.22,12.89-12.94,3.49-4.32,7.5-3.84,12.54-3-7.36,6.61-14.44,12.96-21.85,19.6,8.37,9.49,16.51,18.72,24.93,28.26-3.9.4-7.35.84-10.81,1.01-.66.03-1.48-.95-2.05-1.62-6.38-7.54-12.72-15.12-19.09-22.67-.45-.53-1.02-.96-1.98-1.85v25.6H3.99c-.76-1.46-1.82-2.85-2.22-4.41-.59-2.28-.71-4.67-1.03-7.02Z"/>
      <path class="cls-19" d="m224.97,65.67c-2.29,3.14-4.48,6.35-6.9,9.39-1.04,1.31-2.51,2.27-3.78,3.38-1.26-1.72-2.52-3.45-3.79-5.17,1.3-2.2,2.62-4.4,3.91-6.61,1.77-3.04,3.52-6.08,5.28-9.12,1.54-2.04,3.07-4.08,4.61-6.12,7.83-11.65,15.66-23.3,23.91-35.56,13.74,20.86,27.24,41.36,40.95,62.16-2.63.48-4.65,1.18-6.63,1.09-1.18-.06-2.7-1.1-3.4-2.15-9.05-13.6-17.97-27.28-26.94-40.94-1.21-1.84-2.49-3.64-4.11-6-4.93,7.42-9.57,14.31-14.11,21.26-1.62,2.48-3,5.12-4.49,7.68-1.5,2.23-3,4.46-4.5,6.69Z"/>
      <path class="cls-13" d="m284.17,130.28c3.78-.97,7.61-1.76,11.28-3.03.99-.34,2.09-2.13,2.1-3.27.13-9.39-6.09-13.08-14.68-11.32-2.59.53-4.89,2.62-7.24,4.11-.99.62-1.79,1.54-2.81,2.45-1.7-6.33-1.73-6.37,3.43-9.08,6.82-3.58,14.22-3.68,21.1-1.33,7.35,2.5,8.93,6.54,9.39,15.19.41,7.95.02,15.94.04,23.91.02,4.91.49,5.35,5.5,5.48.26.9.55,1.89.82,2.85-6.86,4.15-12.61,2.56-15.11-3.75-4.87,4.66-10.46,7.2-17.32,6.94-5.77-.22-11.67-4.02-13.66-11.21-1.51-5.47,1.9-12.38,7.37-15.1,1.41-.7,2.96-1.12,4.45-1.67,1.28,1.07,2.57,2.15,3.85,3.22-1.11.93-2.29,1.79-3.31,2.8-2.97,2.95-3.73,8.74-1.65,11.97,2.8,4.36,6.5,5.71,11.42,3.93,7.19-2.6,9.85-6.82,9.35-14.92-.41-6.62-.08-6.63-6.42-5.34-.6.12-1.23.12-1.85.18-2.02-1.01-4.04-2.02-6.06-3.03Z"/>
      <path class="cls-13" d="m89.58,151.05c1.12.76,2.22,1.56,3.37,2.28,1.08.68,2.21,1.27,3.7,2.11-7.33,5.1-13.58,3.51-15.99-2.9-4.51,4.5-9.92,6.48-16.2,6.91-7.97.55-14.09-6.4-14.84-12.04-1.16-8.77,5.38-15.15,11.93-15.97,1.28,1.07,2.56,2.14,3.84,3.21-.45.4-.88.84-1.36,1.2-4.28,3.22-6.14,7.7-4.41,11.96,1.3,3.22,4.64,6.79,9.47,6.34,3.48-.32,11.72-5.27,11.91-7.97.34-4.78.1-9.61.1-14.47-3.47.53-6.58,1.01-9.69,1.49-1.51-.95-3.02-1.91-4.52-2.86,3.87-1.04,7.78-1.97,11.58-3.23.83-.28,1.75-1.73,1.8-2.69.69-11.42-9.52-14.2-17.05-11.05-2.4,1.01-4.31,3.21-6.42,4.9-.65.52-1.21,1.14-2.1,1.97-1.17-7.01,1.06-10.69,8.05-11.71,5.52-.8,11.42-1.01,16.84.09,6.1,1.24,8.96,6.42,9.72,12.54.02,5.73.04,11.47.05,17.2,0,1.49.01,2.99.02,4.48,0,.5,0,1.01,0,1.51l-.02,2.99c.07,1.23.14,2.46.22,3.7Z"/>
      <path class="cls-1" d="m224.29,51.43c-1.54,2.04-3.07,4.08-4.61,6.12-3.14-4.53-6.27-9.07-9.81-14.19-3.41,5.58-6.48,10.6-9.55,15.62-1.51,2.47-3.01,4.94-4.52,7.41-2.1,2.7-4.22,5.39-6.3,8.11-.83,1.08-1.58,2.22-2.36,3.33-.87.2-1.74.41-2.61.61-3.5,0-7.01-.01-10.51-.02-3.74.01-7.48.02-11.22.03-1,0-2,0-3,0-.28-.26-.56-.51-.84-.77,6.51-10.01,13.02-20.01,19.54-30.03,5.21,3.57,5.67,5.64,2.57,10.31-2.54,3.84-5.11,7.66-7.67,11.49,1.93,1.91,7.95,2.58,9.64.36,2.88-3.78,5.01-8.14,7.45-12.25,1.76-2.21,3.53-4.41,5.29-6.62,4.64-6.87,9.28-13.75,14.44-21.41,4.99,7.76,9.54,14.82,14.08,21.88Z"/>
      <path class="cls-21" d="m207.71,127.04c.29-.47.57-.93.86-1.4,2.15-.98,1.85-2.05.11-3.16-.98-5.13-3.19-9.21-8.95-10.08-5.54-.83-10.25.74-13.98,5.01-.63.72-1.22,1.48-1.82,2.22-2.37-2.12-2.33-5.98.02-7.64,7.5-5.31,15.87-5.52,24.21-3.26,5.85,1.59,8.75,6.39,9.27,12.45-.23.67-.65,1.34-.65,2.01-.04,8.02-.05,16.04,0,24.06,0,.79.47,1.58.73,2.36,1.01,2.35,1.21,5.83,5.56,3.64.33,1,.63,1.94.93,2.87-5.98,3.5-11.22,3.99-15.19-3.44-4.81,4.42-10.39,6.83-16.99,6.71-5.95-.11-11.6-4.47-13.35-9.71-1.95-5.82.73-13.58,6.41-16.44,1.51-.76,3.19-1.2,4.79-1.79,1.29,1.08,2.57,2.16,3.86,3.24-.93.79-1.88,1.56-2.8,2.36-3.39,2.97-4.34,8.38-2.1,11.93,2.72,4.32,6.41,6.04,10.52,4.92,6-1.63,10.09-6.1,10.1-11.1.01-3.48-.02-6.95-.04-10.43-.5-1.78-1-3.57-1.5-5.35Z"/>
      <path class="cls-20" d="m393.56,107.81c3.55.02,7.11.03,10.66.05.45,3.67,3.13,1.54,4.86,1.88,6.28,2.3,7.56,7.74,7.81,13.37.33,7.59.05,15.2.07,22.8,0,1.49,0,3.01.25,4.47.5,2.87,1.89,4.58,5.23,3.09.3.88.57,1.67.85,2.49-5.36,4.13-11.94,3.73-15.09-3.2-4.61,3.93-9.66,6.64-15.96,6.65-8.32.01-13.35-5.11-14.38-10.79-1.54-8.47,1.97-14.5,9.89-16.89,4.05-1.22,8.42-1.34,12.51-2.46,2.85-.78,6.81-.63,7.47-4.7.83-5.15-1.77-9.42-6.68-11.8-.33-2.72-1.66-4-4.58-3.69-.91.1-1.94-.82-2.91-1.28Zm14.31,23.96c-2.68.53-5.11.8-7.42,1.5-3.46,1.05-7.15,1.89-10.15,3.76-3.62,2.26-4.56,7.62-2.85,11.25,1.87,3.99,6.23,6.46,10.23,5.81,4.36-.71,9.98-4.98,10.13-8.12.23-4.7.06-9.42.06-14.2Z"/>
      <path class="cls-14" d="m201.88,249.29c-.8-.96-2.45-2.16-2.26-2.85,2.57-9.41,5.07-18.86,8.28-28.06,1.81-5.19,4.75-10.02,7.47-14.85.86-1.53,3.08-3.85,3.93-3.56,2.51.84,4.87,2.63,5.01,5.86.05,1.18,0,2.37,0,4.31,3.55-3.1,6.38-5.79,9.44-8.19,3.01-2.36,6.81-3.28,9.89-1.02,1.95,1.43,3.24,4.51,3.67,7.05.58,3.43-1.73,6.11-4.52,7.93-1.8,1.18-5.59-1.29-6.44-4.06-.55.33-1.06.64-1.58.95-1.27-.1-2.54-.19-3.81-.29-.31.24-.61.49-.92.73-.2.19-.4.39-.6.58-.26.31-.52.61-.79.92l.04-.05c-.27.27-.53.53-.8.8l.05-.05c-.26.26-.53.53-.79.79,0,0,.04-.05.04-.05-.26.26-.52.52-.78.78,0,0,.02-.02.02-.02-.26.26-.52.52-.78.77,0,0,.01-.03.01-.03-.84,1.01-1.67,2.03-2.51,3.04-1.63,2.85-3.29,5.69-4.85,8.58-.26.49-.1,1.2-.13,1.81-2.72,4.86-5.63,9.62-8.11,14.6-1.7,3.41-4.8,2.73-7.51,3.36.53-2.41,1.07-4.83,1.6-7.24.71-2.28,1.42-4.56,2.13-6.84.18-.24.37-.47.53-.73.01-.02-.23-.19-.35-.29-.1.3-.2.61-.29.91-.78,2.22-1.55,4.45-2.33,6.67-.66,2.58-1.32,5.15-1.98,7.73Z"/>
      <path class="cls-18" d="m195.77,50.96c-1.76,2.21-3.53,4.41-5.29,6.62-6.07-9.05-12.13-18.11-18.52-27.64-3.97,6.01-7.6,11.48-11.2,16.98-6.28,9.58-12.44,19.24-18.86,28.73-2.5,3.7-6.61,2.57-11.29,2.96,14.05-21.32,27.55-41.82,41.35-62.77,4.87,7.3,9.43,14.2,14.06,21.06,3.2,4.73,6.5,9.38,9.75,14.07Z"/>
      <path class="cls-11" d="m227.52,40.18c-5.81-8.84-11.45-17.43-17.41-26.5-6,9.1-11.72,17.79-17.44,26.47-.34-.19-.6-.24-.72-.4q-4.33-6.03-.16-12.36c5.27-8,10.55-16,15.84-23.99.67-1.01,1.42-1.95,2.48-3.4,1.08,1.43,1.92,2.43,2.63,3.51,5.33,8.11,10.63,16.24,15.97,24.35q4.06,6.18-1.18,12.31Z"/>
      <path class="cls-6" d="m234.06,125.68c0-1.52-.02-3.04-.02-4.55,0-.23,0-.46,0-.69,0-.52,0-1.04,0-1.55.25-2.02.39-4.07.78-6.07.29-1.47.9-2.87,1.37-4.3,1.77,0,3.55.01,5.32.02.22.01.44.02.66.04.39,2.16.79,4.33,1.37,7.56,4.77-6.23,10.08-10.64,17.85-7.8-.23,3.23-.43,6.08-.64,9.01-9.93-4.43-17.36.53-17.6,11.01-.22,9.67-.05,19.35-.05,29.4h-8.4c.03-2.83.18-5.66.07-8.49-.13-3.37-.47-6.74-.73-10.11,0-.52,0-1.04,0-1.55,0-.48.01-.96.02-1.44l.02-9.8c.1-.06.28-.16.28-.18-.08-.17-.19-.33-.29-.5Z"/>
      <path class="cls-5" d="m258.06,201.26c-1.88-.25-3.79-.85-5.63-.67-2.6.25-3.9-1.03-4.02-3.15-.04-.69,1.96-1.86,3.19-2.16,2.13-.53,4.38-.55,6.58-.79,2.96-.32,5.06-1.71,6.86-4.22,3.97-5.58,8.09-11.08,12.55-16.27,3.49-4.07,3.84-3.85,8.66-.86-3.22,6.66-6.44,13.34-9.89,20.48,4.35,1.31,10.34.97,9.07,8.5-5.86-.44-12.01-2.15-16.2,3.74-.26-.77-.52-1.54-.77-2.31-3.42-.94-6.35-4.15-10.39-2.28Z"/>
      <path class="cls-9" d="m224.97,65.67c1.5-2.23,3-4.46,4.5-6.69,1.75,2.57,3.69,5.03,5.2,7.73,1.83,3.28,4.21,5.01,8.09,4.32,1.19-.21,2.45-.03,4.4-.03-.96-1.87-1.57-3.28-2.38-4.57-1.59-2.53-3.3-4.98-4.94-7.47-3.84-5.83-3.81-6.13,1.54-11.81,6.77,10.32,13.49,20.56,20.62,31.43-9.62,0-18.54.05-27.45-.08-.86-.01-1.95-1-2.51-1.82-2.44-3.61-4.72-7.32-7.06-10.99Z"/>
      <path class="cls-5" d="m258.62,233.51c-.2,1.68-.57,3.37-.56,5.05,0,1.38.46,2.76.72,4.14,1.25-.25,2.55-.36,3.74-.78,1.6-.57,3.11-1.39,5.54-2.51-1.26,5.97-4.27,9.08-8.64,10.92-3.98,1.67-9.46-.02-12.42-3.46-2.89-3.36-3.56-10.83-1.49-14.17.88-.72,2.38-1.33,2.54-2.19.53-2.75.57-5.6.8-8.41,0,0-.04.03-.04.03,2.21-1.13,4.42-2.27,6.31-3.24.33,1.97.73,4.31,1.1,6.49,1.04.19,2.07.38,3.1.57-.33,2.51-2.65,4.83-.7,7.55Z"/>
      <path class="cls-21" d="m188.08,174.96c1,.32,2.01.63,3.19,1.01-.25,2.21-2.52,4.77.76,6.55-.26.52-.51,1.03-.77,1.55,0,0,.04-.05.04-.05-1.27.72-2.53,1.45-3.8,2.17-.56-.36-1.6-1.05-1.61-1.02-1.49,2.11-2.9,4.27-4.32,6.43-1.24,1.73-2.48,3.45-3.72,5.18-1.07.99-2.2,1.93-3.21,2.98-1.22,1.26-2.34,2.61-3.51,3.92-.27-.53-.53-1.06-.8-1.59,1.19-2.27-.93-1.21-1.61-1.6.84-1.18,1.68-2.36,2.51-3.54.19-.05.36-.14.49-.29.23.49.45.98.68,1.46-.05.26-.1.52-.16.78l.53-.42c1-1.25,2-2.51,3-3.76.24-.25.49-.5.74-.75.25-.25.5-.5.75-.75.05-.28.1-.56.15-.84-.18.15-.37.3-.55.45-.22.27-.44.55-.66.82-.25,0-.5,0-.76.01.1-.65.2-1.3.31-1.95.21-.28.43-.56.64-.85,2.53-2.71,5.06-5.41,7.59-8.12.74-.63,1.48-1.27,2.21-1.9-.51-.52-1.02-1.05-1.53-1.57-.41.98-.82,1.97-1.23,2.95-2.58,2.72-5.16,5.44-7.74,8.17-.18.18-.35.36-.53.54-1.16,1.41-2.33,2.81-3.49,4.22,0,0,.08.07.08.07-.4.32-.79.64-1.19.96-1.6,2.18-3.19,4.37-4.79,6.55,0,0,.01-.02.01-.02-.25.51-.51,1.02-.76,1.54,0,0,.03-.04.03-.04-.26.26-.52.52-.79.79,0,0,.04-.04.04-.04-.51.51-1.03,1.02-1.54,1.53,0,0,.03-.04.03-.04-.26.52-.52,1.04-.77,1.56,0,0,.04-.06.04-.06-.19.01-.38.03-.57.04.16.23.32.47.49.7,1.57.28,3.15.56,4.72.84.95.98,1.89,1.96,2.84,2.94-4.53.99-9.06,2.03-13.61,2.9-.67.13-1.5-.57-2.26-.89,5.48-7.2,10.7-14.61,16.5-21.54,4.99-5.96,10.64-11.38,16.04-17,.47-.49,1.24-.68,1.88-1.01Zm0,6.39c-.09.2-.18.4-.27.61.2.09.45.29.59.23.14-.06.3-.42.25-.56-.06-.15-.37-.19-.58-.28Zm.49-4.24c-.04.1-.07.2-.11.3.09.03.23.11.26.08.07-.07.08-.19.12-.29-.09-.03-.18-.06-.27-.09Z"/>
      <path class="cls-6" d="m259.33,225.96c-1.03-.19-2.06-.38-3.1-.57-.37-2.18-.77-4.52-1.1-6.49-1.89.97-4.1,2.1-6.31,3.24,1.6-3.9,3.13-7.84,4.83-11.69,1.37-3.1,2.93-6.12,4.41-9.17,4.04-1.87,6.96,1.34,10.39,2.28-2.5,5.23-5.01,10.46-7.51,15.69.09.53.19,1.07.28,1.6-.63,1.71-1.26,3.42-1.9,5.12Zm-.6-13.45c.35.2.71.39,1.06.59.86-1.73,1.72-3.45,2.58-5.18-.32-.16-.63-.33-.95-.49-.9,1.69-1.79,3.39-2.69,5.08Z"/>
      <path class="cls-18" d="m195.8,66.39c1.51-2.47,3.01-4.94,4.52-7.41.83,1.05,1.7,2.06,2.47,3.15,2.59,3.7,5.14,7.43,7.71,11.14,1.26,1.72,2.52,3.45,3.79,5.17-6.92,1.39-12.11-.46-14.94-7.45-.7-1.73-2.34-3.08-3.54-4.6Z"/>
      <path class="cls-8" d="m393.56,107.81c.97.45,1.99,1.37,2.91,1.28,2.92-.31,4.25.97,4.58,3.69-7.13-1.7-12.96.06-17.23,6.27-.24.35-1.44.03-2.19.02.45-2.55-1.54-5.86,2.27-7.38,3.22-1.29,6.44-2.58,9.67-3.87Z"/>
      <path class="cls-8" d="m207.71,127.04c.5,1.78,1,3.57,1.5,5.35-1-.12-2.05-.49-2.99-.31-4.25.79-8.46,1.73-12.69,2.62-1.29-1.08-2.57-2.16-3.86-3.24,3.63-.69,7.28-1.26,10.87-2.1,2.44-.57,4.78-1.53,7.17-2.31Z"/>
      <path class="cls-22" d="m186.86,246.18c-.3-.88-1.01-1.87-.82-2.64,1.42-5.63,3.02-11.21,4.56-16.81.78-.65,1.57-1.3,2.35-1.95.24.23.74.54.69.69-1.94,6.69-3.92,13.38-5.93,20.05-.08.28-.56.44-.86.66Z"/>
      <path class="cls-8" d="m350.65,109.69c-.93,1.04-1.86,2.07-2.8,3.11-2.99,0-5.99,0-8.98,0-.92-.96-1.71-2.12-2.8-2.82-.91-.59-2.16-.65-3.26-.95,6.03-1.91,12.01-2.57,17.84.65Z"/>
      <path class="cls-8" d="m9.94,128.64c-.5-.39-1.44-.78-1.44-1.17-.07-10.97-.08-21.94.01-32.9,0-.62.87-1.24,1.34-1.86.03,11.98.06,23.95.09,35.93Z"/>
      <path class="cls-4" d="m259.33,225.96c.63-1.71,1.26-3.42,1.9-5.12.23-.52.47-1.04.7-1.56,1.39-1.78,2.78-3.57,4.17-5.35-1.57,4.56-3.07,9.14-4.73,13.67-.75,2.03-1.81,3.95-2.74,5.92-1.95-2.72.37-5.04.7-7.55Z"/>
      <path class="cls-7" d="m365.99,151.07c-.3-1.14-.85-2.28-.86-3.41-.05-17.19-.05-34.37,0-51.56,0-1.15.53-2.3.82-3.46.02,13.27.04,26.55.05,39.82,0,6.2,0,12.4-.01,18.61Z"/>
      <path class="cls-16" d="m266.09,213.92c-1.39,1.78-2.78,3.57-4.17,5.35-.33-.01-.66-.03-.98-.04,2.5-5.23,5.01-10.46,7.51-15.69.26.77.52,1.54.77,2.31-.56,1.46-1.12,2.93-1.69,4.39-.48,1.23-.96,2.45-1.44,3.68Z"/>
      <path class="cls-16" d="m147.94,240.46c.81-2.24,1.4-4.6,2.48-6.7,1.19-2.3,2.75-4.42,4.33-6.49.31-.4,1.42-.19,2.16-.26-2.99,4.48-5.98,8.97-8.98,13.45Z"/>
      <path class="cls-8" d="m180.7,231.19c-.89-.25-1.79-.5-2.68-.75.87-3.51,1.75-7.02,2.62-10.53.87.53,1.75,1.06,2.62,1.59-.86,3.23-1.71,6.46-2.57,9.69Z"/>
      <path class="cls-16" d="m198.16,212.41c-2.52-.93-3.08-3.08-2.15-5.06,1.08-2.3,1.18-6,5.32-5.48-.89,2.21-1.88,4.4-2.63,6.66-.4,1.22-.38,2.58-.54,3.88Z"/>
      <path class="cls-12" d="m230.98,212.5c1.27.1,2.54.19,3.81.29-2.75,2.73-5.51,5.46-8.26,8.19-.28-1.1-.56-2.2-.83-3.3,0,0-.01.03-.01.03.26-.26.52-.52.78-.77,0,0-.02.02-.02.02.26-.26.52-.52.78-.78,0,0-.04.05-.04.05.26-.27.53-.53.79-.79,0,0-.05.05-.05.05.27-.27.53-.53.8-.79,0,0-.04.05-.04.05.26-.31.52-.61.79-.92.2-.19.4-.39.6-.58.31-.24.61-.49.92-.73Z"/>
      <path class="cls-12" d="m192.95,224.79c-.78.65-1.57,1.3-2.35,1.95-.08-.2-.12-.41-.1-.63-.22-.28-.44-.56-.66-.84.78-1.79,1.45-3.63,2.37-5.34.8-1.49,1.92-2.55,3.51-.72-.92,1.86-1.85,3.73-2.77,5.59Z"/>
      <path class="cls-8" d="m284.17,130.28c2.02,1.01,4.04,2.02,6.06,3.03-2.52.46-5.03.91-7.55,1.37-1.28-1.07-2.57-2.15-3.85-3.22,1.78-.39,3.55-.78,5.33-1.18Z"/>
      <path class="cls-8" d="m66.88,130.34c1.51.95,3.02,1.91,4.52,2.86l-6.01,1.45c-1.28-1.07-2.56-2.14-3.84-3.21,1.78-.37,3.55-.74,5.33-1.1Z"/>
      <path class="cls-16" d="m218.2,231.11c.03-.61-.13-1.33.13-1.81,1.56-2.89,3.23-5.73,4.86-8.58.54.77,1.08,1.55,1.62,2.32-2.2,2.69-4.41,5.38-6.61,8.07Z"/>
      <path class="cls-7" d="m.74,146.49c.32,2.35.44,4.74,1.03,7.02.4,1.56,1.46,2.94,2.22,4.41-1.1.28-2.21.57-3.99,1.03.27-4.51.51-8.48.74-12.45Z"/>
      <path class="cls-17" d="m217.51,149.61c-.25-.79-.72-1.57-.73-2.36-.06-8.02-.05-16.04,0-24.06,0-.67.42-1.34.65-2.01.03,9.48.05,18.95.08,28.43Z"/>
      <path class="cls-17" d="m234.04,139.15c.25,3.37.6,6.73.73,10.11.11,2.82-.04,5.66-.07,8.49-.48-.69-1.39-1.4-1.37-2.08.14-5.51.45-11.01.71-16.52Z"/>
      <path class="cls-7" d="m2.42,84.45c-.24,2.74-.44,5.48-.73,8.22-.16,1.52-.49,3.02-.74,4.53-.25-4.27-.45-8.54-.76-12.81-.12-1.75.36-2.59,2.24-2.04,0,.7,0,1.4-.01,2.1Z"/>
      <path class="cls-6" d="m248.87,222.1c-.23,2.81-.27,5.66-.8,8.41-.17.86-1.66,1.47-2.54,2.19,1.12-3.53,2.23-7.07,3.35-10.6Z"/>
      <path class="cls-8" d="m2.42,84.45c0-.7,0-1.4.01-2.1,2.51.53,5.92-2.05,7.39,2.11-2.47,0-4.93,0-7.4-.01Z"/>
      <path class="cls-17" d="m236.18,108.51c-.47,1.43-1.08,2.83-1.37,4.3-.39,2-.53,4.04-.78,6.07-.32-3.38-.65-6.76-.99-10.37h3.15Z"/>
      <path class="cls-7" d="m89.37,138.37c-.02-5.73-.04-11.47-.05-17.2.02,5.73.04,11.47.05,17.2Z"/>
      <path class="cls-10" d="m224.81,223.04c-.54-.77-1.08-1.55-1.62-2.32.84-1.01,1.67-2.03,2.51-3.04.28,1.1.56,2.2.83,3.3-.57.69-1.15,1.37-1.72,2.06Z"/>
      <path class="cls-7" d="m.99,132.39c0,3.99-.01,7.97-.02,11.96,0-3.99.01-7.97.02-11.96Z"/>
      <path class="cls-9" d="m162.8,78.47c3.74-.01,7.48-.02,11.22-.03-3.74.01-7.48.02-11.22.03Z"/>
      <path class="cls-22" d="m201.88,249.29c.66-2.58,1.32-5.15,1.99-7.72.11.09.21.18.32.28-.53,2.41-1.07,4.83-1.6,7.24-.21.13-.45.2-.7.21Z"/>
      <path class="cls-8" d="m409.08,109.74c-1.73-.33-4.42,1.79-4.86-1.88,1.62.62,3.24,1.25,4.86,1.88Z"/>
      <path class="cls-8" d="m208.68,122.48c1.74,1.12,2.04,2.18-.11,3.16.04-1.05.07-2.11.11-3.16Z"/>
      <path class="cls-7" d="m89.58,151.05c-.07-1.23-.14-2.46-.22-3.7.07,1.23.14,2.46.22,3.7Z"/>
      <path class="cls-8" d="m357.44,89.66c.02,1.03.04,2.06.05,3.08-.02-1.03-.04-2.06-.05-3.08Z"/>
      <path class="cls-8" d="m356.95,86.72c.1.55.19,1.11.29,1.66-.1-.55-.19-1.11-.29-1.66Z"/>
      <path class="cls-9" d="m184.53,78.45c.87-.2,1.74-.41,2.61-.61-.87.2-1.74.41-2.61.61Z"/>
      <path class="cls-17" d="m234.05,136.16c0,.48-.01.96-.02,1.44,0-.48.01-.96.02-1.44Z"/>
      <path class="cls-9" d="m158.95,77.69c.28.26.56.51.84.77-.28-.26-.56-.51-.84-.77Z"/>
      <path class="cls-8" d="m357.56,107.67c0,.51,0,1.01,0,1.52,0-.51,0-1.01,0-1.52Z"/>
      <path class="cls-7" d="m89.39,144.37c0-.5,0-1.01,0-1.51,0,.5,0,1.01,0,1.51Z"/>
      <path class="cls-17" d="m234.04,120.43c0,.23,0,.46,0,.69-.08-.23-.08-.46,0-.69Z"/>
      <path class="cls-16" d="m201.67,201.36c-.05-.2-.12-.4-.13-.61,0-.08.14-.16.22-.25-.03.28-.06.57-.09.85Z"/>
      <path class="cls-17" d="m242.17,108.56c-.22-.01-.44-.02-.66-.04.22-.09.44-.08.66.04Z"/>
      <path class="cls-17" d="m234.06,125.68c.1.16.21.32.29.5,0,.02-.18.12-.28.18-.09-.22-.09-.45-.01-.68Z"/>
      <path class="cls-8" d="m185.12,206.44c1.26-3.99,2.51-7.99,3.77-11.98.9.78,1.79,1.56,2.69,2.35-1.29,3.51-2.58,7.01-3.87,10.52-.86-.3-1.72-.59-2.58-.89Z"/>
      <path class="cls-10" d="m180.7,231.19c.85-3.23,1.71-6.46,2.57-9.69.48-.91.95-1.81,1.43-2.72l.51.23c-1.61,6.23-3.22,12.46-4.83,18.69-.19-.04-.39-.08-.58-.12.3-2.13.6-4.26.9-6.39Z"/>
      <path class="cls-10" d="m187.71,207.33c1.29-3.51,2.58-7.01,3.87-10.52.5-1.06.99-2.12,1.49-3.18.23.09.47.18.7.27-1.97,5.58-3.93,11.15-5.9,16.73-.27-.06-.54-.11-.8-.17.21-1.04.42-2.09.63-3.13Z"/>
      <path class="cls-12" d="m169.32,210.64c.09.43.19.85.28,1.28.01.2,0,.39-.07.57-.95-.98-1.89-1.96-2.84-2.94.45-.02.89-.04,1.34-.05h0c.25.24.5.49.75.74.15.18.33.31.54.41Z"/>
      <path class="cls-21" d="m179.26,211.69c1-.19,2.01-.38,3.01-.57-1,.19-2.01.38-3.01.57Z"/>
      <path class="cls-10" d="m191.25,184.07c.26-.52.51-1.03.77-1.55-.26.52-.51,1.03-.77,1.55Z"/>
      <path class="cls-22" d="m189.84,225.26c.22.28.44.56.66.84-.22-.28-.44-.56-.66-.84Z"/>
      <path class="cls-8" d="m337.89,113c-.48.32-.97.63-1.45.95.48-.32.97-.63,1.45-.95Z"/>
      <path class="cls-22" d="m206.32,235c-.71,2.28-1.42,4.56-2.13,6.84-.1-.09-.21-.18-.32-.27.78-2.22,1.55-4.45,2.33-6.67l.12.11Z"/>
      <path class="cls-22" d="m206.2,234.9c.1-.3.2-.61.29-.91.12.1.36.27.35.29-.16.25-.35.49-.53.73,0,0-.12-.11-.12-.11Z"/>
      <path class="cls-10" d="m230.98,212.5c-.3.24-.61.49-.92.73.3-.24.61-.49.92-.73Z"/>
      <path class="cls-10" d="m229.46,213.81c-.26.31-.52.61-.79.92.26-.31.52-.61.79-.92Z"/>
      <path class="cls-10" d="m228.72,214.68c-.27.26-.53.53-.8.79.27-.26.53-.53.8-.79Z"/>
      <path class="cls-10" d="m227.97,215.43c-.26.26-.53.53-.79.79.26-.26.53-.53.79-.79Z"/>
      <path class="cls-10" d="m227.22,216.18c-.26.26-.52.52-.78.78.26-.26.52-.52.78-.78Z"/>
      <path class="cls-10" d="m226.46,216.94c-.26.26-.52.52-.78.77.26-.26.52-.52.78-.77Z"/>
      <path class="cls-12" d="m177.83,196.77c.5.27,1,.54,1.5.81-3.34,4.35-6.67,8.71-10.01,13.06-.21-.09-.39-.23-.54-.41-.25-.25-.5-.5-.75-.75h0c1.02-1.93,2.05-3.87,3.07-5.81,1.17-1.31,2.29-2.66,3.51-3.92,1.01-1.05,2.14-1.99,3.21-2.98Z"/>
      <path class="cls-14" d="m171.11,203.68c-1.02,1.94-2.05,3.88-3.07,5.82-.45.02-.9.04-1.34.05-1.57-.28-3.15-.56-4.72-.84.03-.25.06-.5.09-.75,0,0-.04.06-.04.06.26-.52.52-1.04.77-1.56,0,0-.03.04-.03.04.51-.51,1.03-1.02,1.54-1.53l-.04.04c.26-.26.52-.52.79-.79,0,0-.03.04-.03.04.25-.51.51-1.02.76-1.54,0,0-.01.02-.01.02.5-.07,1-.14,1.5-.21.03.38.06.77.08,1.15-.03.43-.06.86-.09,1.29-.25.25-.51.49-.76.74-.1.13-.2.26-.3.4.13-.1.26-.21.38-.31.24-.26.49-.52.73-.77.25-.5.5-1,.75-1.5.13-.3.25-.6.38-.89-.05-.07-.15-.15-.14-.22.02-.15.08-.3.13-.45.63.04,1.25.08,1.88.12.27.53.53,1.06.8,1.59Z"/>
      <path class="cls-2" d="m183.97,182.76c-2.53,2.71-5.06,5.41-7.59,8.12-.23-.16-.46-.32-.68-.48,2.58-2.72,5.16-5.44,7.74-8.17.18.17.36.35.54.52Z"/>
      <path class="cls-15" d="m187.49,186.19c-1.98,1.8-3.96,3.6-5.93,5.4,1.42-2.16,2.83-4.32,4.32-6.43.02-.03,1.05.67,1.61,1.02Z"/>
      <path class="cls-2" d="m167.26,202.53c-.5.07-1,.14-1.5.21,1.6-2.18,3.19-4.37,4.79-6.55.22.25.44.51.66.76-.84,1.18-1.68,2.36-2.51,3.54,0,0,.07-.02.07-.02,0,.4-.01.81-.02,1.21-.19,0-.3.11-.32.29-.05.15-.11.3-.13.45,0,.07.09.15.14.22,0,0,0,.07,0,.07-.39-.06-.78-.12-1.17-.17Z"/>
      <path class="cls-2" d="m171.66,195.16c1.16-1.41,2.33-2.81,3.49-4.22.19.26.38.52.57.78-.1.65-.2,1.3-.31,1.95,0,0,.09.03.09.03-.87.49-1.75.99-2.62,1.48-.41,0-.82-.02-1.22-.03Z"/>
      <path class="cls-12" d="m171.66,195.16c.41,0,.82.02,1.22.03.85-.25,1.71-.49,2.56-.74.1.09.21.18.31.28-1,1.25-2,2.51-3,3.76-.12-.12-.25-.25-.37-.37-.23-.49-.45-.98-.68-1.46.01-.48.03-.96.04-1.44l-.08-.07Z"/>
      <path class="cls-2" d="m183.43,182.23c.41-.98.82-1.97,1.23-2.95.51.52,1.02,1.05,1.53,1.57-.74.63-1.48,1.27-2.21,1.9-.18-.17-.36-.35-.54-.52Z"/>
      <path class="cls-12" d="m168.43,201.97c.02-.19.13-.28.32-.29,0-.4.01-.81.02-1.21,0,0-.07.02-.07.02.68.39,2.8-.67,1.61,1.6-.63-.04-1.25-.08-1.88-.12Z"/>
      <path class="cls-15" d="m188.07,181.34c.2.09.52.13.57.28.06.14-.1.5-.25.56-.15.06-.39-.14-.59-.23.09-.2.18-.4.27-.61Z"/>
      <path class="cls-2" d="m164.3,204.97c-.51.51-1.03,1.02-1.54,1.53.51-.51,1.03-1.02,1.54-1.53Z"/>
      <path class="cls-2" d="m171.74,195.23c-.01.48-.03.96-.04,1.44-.13.15-.3.24-.49.29-.22-.25-.44-.51-.66-.76.4-.32.79-.64,1.19-.97Z"/>
      <path class="cls-2" d="m162.79,206.46c-.26.52-.52,1.04-.77,1.56.26-.52.52-1.04.77-1.56Z"/>
      <path class="cls-15" d="m188.56,177.1c.09.03.18.06.27.09-.04.1-.05.22-.12.29-.02.03-.17-.05-.26-.08.04-.1.07-.2.11-.3Z"/>
      <path class="cls-2" d="m165.78,202.73c-.25.51-.51,1.02-.76,1.54.25-.51.51-1.02.76-1.54Z"/>
      <path class="cls-2" d="m165.05,204.22c-.26.26-.52.52-.79.79.26-.26.52-.52.79-.79Z"/>
      <path class="cls-2" d="m175.16,190.94c.18-.18.36-.36.53-.54.23.16.45.32.68.47-.21.28-.43.56-.64.85-.19-.26-.38-.52-.57-.78Z"/>
      <path class="cls-12" d="m176.84,192.84c.18-.15.37-.3.55-.44-.05.28-.1.56-.15.84-.13-.13-.27-.26-.4-.39Z"/>
      <path class="cls-12" d="m176.18,193.66c.22-.27.44-.55.66-.82.13.13.26.26.4.39-.25.25-.5.5-.75.75-.1-.1-.21-.21-.31-.32Z"/>
      <path class="cls-12" d="m172.75,198.49l-.53.42c.05-.26.1-.52.16-.78.13.12.25.24.37.37Z"/>
      <path class="cls-12" d="m176.49,193.98c-.25.25-.49.5-.74.75-.1-.09-.2-.19-.3-.28.02-.25.04-.5.06-.74,0,0-.09-.03-.09-.03.25,0,.5,0,.76-.01.1.11.2.21.31.32Z"/>
      <path class="cls-2" d="m162.06,207.97c-.03.25-.06.5-.09.75-.16-.23-.32-.47-.49-.7.19-.01.38-.03.57-.04Z"/>
      <path class="cls-5" d="m258.73,212.5c.9-1.69,1.79-3.39,2.69-5.08.32.16.63.33.95.49-.86,1.73-1.72,3.45-2.58,5.18-.35-.2-.71-.39-1.06-.59Z"/>
      <path class="cls-5" d="m260.94,219.23c.33.01.66.03.98.04-.23.52-.47,1.04-.7,1.56-.09-.53-.19-1.07-.28-1.6Z"/>
      <path class="cls-12" d="m179.31,197.57c.33-.25.67-.51,1-.76-.33.25-.67.51-1,.76Z"/>
      <path class="cls-14" d="m168.03,209.49c.25.25.5.5.75.75-.25-.25-.5-.5-.75-.75Z"/>
      <path class="cls-12" d="m167.26,204.98c.03-.43.06-.86.09-1.29.22-.08.44-.15.66-.21,0,0,.05.05.05.05-.25.5-.5,1-.75,1.5,0,0-.05-.05-.05-.05Z"/>
      <path class="cls-12" d="m166.5,205.72c.25-.25.51-.49.76-.74,0,0,.05.05.05.05-.24.26-.49.52-.73.77,0,0-.08-.08-.08-.08Z"/>
      <path class="cls-12" d="m168.44,202.71s0-.07,0-.07c-.13.3-.26.59-.38.89,0,0-.05-.05-.05-.05.14-.26.28-.51.43-.77Z"/>
      <path class="cls-21" d="m168.44,202.71c-.14.26-.28.51-.43.77-.23.06-.45.12-.66.21-.03-.38-.06-.77-.08-1.15.39.06.78.12,1.17.17Z"/>
      <path class="cls-12" d="m166.58,205.8c-.13.1-.26.21-.38.31.1-.13.2-.26.3-.4,0,0,.08.08.08.08Z"/>
      <path class="cls-21" d="m168.77,200.47c0,.4-.01.81-.02,1.21,0-.4.01-.81.02-1.21Z"/>
      <path class="cls-21" d="m175.51,193.71c-.02.25-.04.5-.06.74-.85.25-1.71.49-2.56.74.87-.49,1.75-.99,2.62-1.48Z"/>
    </g>
  </g>
</svg>